<mxfile host="65bd71144e">
    <diagram id="fHmZmzbug6oBOaXRgfsE" name="Page-1">
        <mxGraphModel dx="1116" dy="811" grid="1" gridSize="10" guides="1" tooltips="1" connect="1" arrows="1" fold="1" page="1" pageScale="1" pageWidth="827" pageHeight="1169" math="0" shadow="0">
            <root>
                <mxCell id="0"/>
                <mxCell id="1" parent="0"/>
                <mxCell id="2" value="Mobile" style="shape=umlLifeline;perimeter=lifelinePerimeter;whiteSpace=wrap;html=1;container=1;collapsible=0;recursiveResize=0;outlineConnect=0;" vertex="1" parent="1">
                    <mxGeometry x="50" y="200" width="100" height="680" as="geometry"/>
                </mxCell>
                <mxCell id="14" value="" style="html=1;points=[];perimeter=orthogonalPerimeter;" vertex="1" parent="2">
                    <mxGeometry x="45" y="170" width="10" height="300" as="geometry"/>
                </mxCell>
                <mxCell id="3" value="PC" style="shape=umlLifeline;perimeter=lifelinePerimeter;whiteSpace=wrap;html=1;container=1;collapsible=0;recursiveResize=0;outlineConnect=0;" vertex="1" parent="1">
                    <mxGeometry x="280" y="200" width="100" height="680" as="geometry"/>
                </mxCell>
                <mxCell id="4" value="Server" style="shape=umlLifeline;perimeter=lifelinePerimeter;whiteSpace=wrap;html=1;container=1;collapsible=0;recursiveResize=0;outlineConnect=0;" vertex="1" parent="1">
                    <mxGeometry x="510" y="200" width="100" height="680" as="geometry"/>
                </mxCell>
                <mxCell id="17" value="" style="html=1;points=[];perimeter=orthogonalPerimeter;" vertex="1" parent="4">
                    <mxGeometry x="45" y="230" width="10" height="420" as="geometry"/>
                </mxCell>
                <mxCell id="5" value="" style="html=1;points=[];perimeter=orthogonalPerimeter;" vertex="1" parent="1">
                    <mxGeometry x="555" y="270" width="10" height="80" as="geometry"/>
                </mxCell>
                <mxCell id="8" value="生成二维码请求" style="html=1;verticalAlign=bottom;endArrow=block;" edge="1" parent="1" target="5">
                    <mxGeometry width="80" relative="1" as="geometry">
                        <mxPoint x="335" y="290" as="sourcePoint"/>
                        <mxPoint x="415" y="290" as="targetPoint"/>
                    </mxGeometry>
                </mxCell>
                <mxCell id="10" value="生成 二维码 ID&lt;br&gt;与设备绑定" style="edgeStyle=orthogonalEdgeStyle;html=1;align=left;spacingLeft=2;endArrow=block;rounded=0;" edge="1" target="5" parent="1">
                    <mxGeometry relative="1" as="geometry">
                        <mxPoint x="565" y="300" as="sourcePoint"/>
                        <Array as="points">
                            <mxPoint x="595" y="300"/>
                            <mxPoint x="595" y="330"/>
                        </Array>
                        <mxPoint x="570" y="320" as="targetPoint"/>
                    </mxGeometry>
                </mxCell>
                <mxCell id="13" value="返回二维码" style="html=1;verticalAlign=bottom;endArrow=open;dashed=1;endSize=8;" edge="1" parent="1" target="6">
                    <mxGeometry relative="1" as="geometry">
                        <mxPoint x="555" y="340" as="sourcePoint"/>
                        <mxPoint x="475" y="340" as="targetPoint"/>
                    </mxGeometry>
                </mxCell>
                <mxCell id="15" value="扫描二维码" style="html=1;verticalAlign=bottom;endArrow=block;" edge="1" parent="1">
                    <mxGeometry width="80" relative="1" as="geometry">
                        <mxPoint x="105" y="380" as="sourcePoint"/>
                        <mxPoint x="325" y="380" as="targetPoint"/>
                    </mxGeometry>
                </mxCell>
                <mxCell id="16" value="返回二维码 ID" style="html=1;verticalAlign=bottom;endArrow=open;dashed=1;endSize=8;" edge="1" parent="1">
                    <mxGeometry relative="1" as="geometry">
                        <mxPoint x="325" y="410" as="sourcePoint"/>
                        <mxPoint x="105" y="410" as="targetPoint"/>
                    </mxGeometry>
                </mxCell>
                <mxCell id="18" value="发送 二维码 ID、移动端身份 token" style="html=1;verticalAlign=bottom;endArrow=block;" edge="1" parent="1" target="17">
                    <mxGeometry width="80" relative="1" as="geometry">
                        <mxPoint x="105.00000000000011" y="460" as="sourcePoint"/>
                        <mxPoint x="325" y="460" as="targetPoint"/>
                        <mxPoint as="offset"/>
                    </mxGeometry>
                </mxCell>
                <mxCell id="6" value="" style="html=1;points=[];perimeter=orthogonalPerimeter;" vertex="1" parent="1">
                    <mxGeometry x="325" y="270" width="10" height="150" as="geometry"/>
                </mxCell>
                <mxCell id="20" value="" style="html=1;points=[];perimeter=orthogonalPerimeter;" vertex="1" parent="1">
                    <mxGeometry x="325" y="530" width="10" height="90" as="geometry"/>
                </mxCell>
                <mxCell id="21" value="返回临时 Token" style="html=1;verticalAlign=bottom;endArrow=open;dashed=1;endSize=8;" edge="1" parent="1" source="17">
                    <mxGeometry relative="1" as="geometry">
                        <mxPoint x="325" y="510" as="sourcePoint"/>
                        <mxPoint x="105.00000000000011" y="510" as="targetPoint"/>
                    </mxGeometry>
                </mxCell>
                <mxCell id="23" value="二维码状态变更 “待确认”&lt;br&gt;（轮询）" style="edgeStyle=orthogonalEdgeStyle;html=1;align=left;spacingLeft=2;endArrow=block;rounded=0;" edge="1" parent="1">
                    <mxGeometry relative="1" as="geometry">
                        <mxPoint x="335" y="559.98" as="sourcePoint"/>
                        <Array as="points">
                            <mxPoint x="365" y="559.98"/>
                            <mxPoint x="365" y="589.98"/>
                        </Array>
                        <mxPoint x="335" y="589.98" as="targetPoint"/>
                    </mxGeometry>
                </mxCell>
                <mxCell id="24" value="携带临时 token，确认登录" style="html=1;verticalAlign=bottom;endArrow=block;" edge="1" parent="1">
                    <mxGeometry width="80" relative="1" as="geometry">
                        <mxPoint x="105" y="660" as="sourcePoint"/>
                        <mxPoint x="555" y="660" as="targetPoint"/>
                        <mxPoint as="offset"/>
                    </mxGeometry>
                </mxCell>
                <mxCell id="25" value="二维码状态变更 “已确认”&lt;br&gt;生成 PC token" style="edgeStyle=orthogonalEdgeStyle;html=1;align=left;spacingLeft=2;endArrow=block;rounded=0;" edge="1" parent="1">
                    <mxGeometry relative="1" as="geometry">
                        <mxPoint x="565" y="680" as="sourcePoint"/>
                        <Array as="points">
                            <mxPoint x="595" y="680"/>
                            <mxPoint x="595" y="710"/>
                        </Array>
                        <mxPoint x="565" y="710" as="targetPoint"/>
                    </mxGeometry>
                </mxCell>
                <mxCell id="27" value="" style="html=1;points=[];perimeter=orthogonalPerimeter;" vertex="1" parent="1">
                    <mxGeometry x="325" y="700" width="10" height="140" as="geometry"/>
                </mxCell>
                <mxCell id="28" value="二维码状态变更 “已确认”，获得&lt;br&gt;PC token（轮询）" style="edgeStyle=orthogonalEdgeStyle;html=1;align=left;spacingLeft=2;endArrow=block;rounded=0;" edge="1" parent="1">
                    <mxGeometry relative="1" as="geometry">
                        <mxPoint x="335" y="720" as="sourcePoint"/>
                        <Array as="points">
                            <mxPoint x="365" y="720"/>
                            <mxPoint x="365" y="750"/>
                        </Array>
                        <mxPoint x="335" y="750" as="targetPoint"/>
                    </mxGeometry>
                </mxCell>
                <mxCell id="30" value="以 token 发送请求" style="html=1;verticalAlign=bottom;endArrow=block;" edge="1" parent="1">
                    <mxGeometry width="80" relative="1" as="geometry">
                        <mxPoint x="335" y="790" as="sourcePoint"/>
                        <mxPoint x="555" y="790" as="targetPoint"/>
                    </mxGeometry>
                </mxCell>
                <mxCell id="31" value="返回资源" style="html=1;verticalAlign=bottom;endArrow=open;dashed=1;endSize=8;" edge="1" parent="1">
                    <mxGeometry relative="1" as="geometry">
                        <mxPoint x="555" y="820" as="sourcePoint"/>
                        <mxPoint x="335" y="820" as="targetPoint"/>
                    </mxGeometry>
                </mxCell>
            </root>
        </mxGraphModel>
    </diagram>
</mxfile>